<?xml version='1.0' encoding='UTF-8' standalone='no'?>
<!-- Created with Fritzing (http://www.fritzing.org/) -->
<svg xmlns="http://www.w3.org/2000/svg" width="1.41346in" x="0in" version="1.2" y="0in"  height="1.80969in" viewBox="0 0 101.769 130.298" baseProfile="tiny" xmlns:svg="http://www.w3.org/2000/svg">
 <g transform="matrix(-1, 0, 0, 1, 101.769, 0)">
  <g partID="19670">
   <g  id="board">
    <rect width="101.193" x="0.288" y="0.288" fill="none"  height="129.722" stroke="black" fill-opacity="0.5" id="boardoutline" stroke-width="0.5"/>
   </g>
  </g>
  <g partID="1517351">
   <g transform="translate(16.9458,104.074)">
    <g transform="matrix(-1,0,0,-1,0,0)">
     <g  id="copper1">
      <g  id="copper0">
       <circle fill="none" cx="5.04"  cy="5.04" stroke="black" id="connector0pin" r="2.088" stroke-width="1.44"/>
       <circle fill="none" cx="5.04"  cy="12.24" stroke="black" id="connector1pin" r="2.088" stroke-width="1.44"/>
       <circle fill="none" cx="5.04"  cy="19.44" stroke="black" id="connector2pin" r="2.088" stroke-width="1.44"/>
       <circle fill="none" cx="5.04"  cy="26.64" stroke="black" id="connector3pin" r="2.088" stroke-width="1.44"/>
       <circle fill="none" cx="5.04"  cy="33.84" stroke="black" id="connector4pin" r="2.088" stroke-width="1.44"/>
       <circle fill="none" cx="5.04"  cy="41.04" stroke="black" id="connector5pin" r="2.088" stroke-width="1.44"/>
      </g>
     </g>
    </g>
   </g>
  </g>
  <g partID="1517071">
   <g transform="translate(14.0658,57.9939)">
    <g  id="copper1">
     <g  id="copper0">
      <circle fill="none" cx="5.04"  cy="5.04" stroke="black" id="connector0pin" r="2.088" stroke-width="1.44"/>
      <circle fill="none" cx="5.04"  cy="12.24" stroke="black" id="connector1pin" r="2.088" stroke-width="1.44"/>
      <circle fill="none" cx="5.04"  cy="19.44" stroke="black" id="connector2pin" r="2.088" stroke-width="1.44"/>
      <circle fill="none" cx="5.04"  cy="26.64" stroke="black" id="connector3pin" r="2.088" stroke-width="1.44"/>
      <circle fill="none" cx="5.04"  cy="33.84" stroke="black" id="connector4pin" r="2.088" stroke-width="1.44"/>
      <circle fill="none" cx="5.04"  cy="41.04" stroke="black" id="connector5pin" r="2.088" stroke-width="1.44"/>
     </g>
    </g>
   </g>
  </g>
  <g partID="1551721">
   <g transform="translate(76.1298,27.4731)">
    <g id="copper1">
     <g id="copper0">
      <rect width="4.32" x="5.616" y="4.60063" fill="none" height="4.32" stroke="black" id="square" stroke-width="1.44"/>
      <circle fill="none" cx="7.776" cy="6.76063" stroke="black" id="connector0pin" r="2.16" stroke-width="1.44"/>
      <circle fill="none" cx="7.776" cy="16.6819" stroke="black" id="connector1pin" r="2.16" stroke-width="1.44"/>
      <circle fill="none" cx="7.776" cy="26.6031" stroke="black" id="connector2pin" r="2.16" stroke-width="1.44"/>
     </g>
    </g>
   </g>
  </g>
  <g partID="1519671">
   <g transform="translate(69.0662,105.658)">
    <g transform="matrix(0,1,-1,0,0,0)">
     <g id="copper1">
      <g id="copper0">
       <rect width="4.32" x="5.616" y="4.60063" fill="none" height="4.32" stroke="black" id="square" stroke-width="1.44"/>
       <circle fill="none" cx="7.776" cy="6.76063" stroke="black" id="connector0pin" r="2.16" stroke-width="1.44"/>
       <circle fill="none" cx="7.776" cy="16.6819" stroke="black" id="connector1pin" r="2.16" stroke-width="1.44"/>
       <circle fill="none" cx="7.776" cy="26.6031" stroke="black" id="connector2pin" r="2.16" stroke-width="1.44"/>
      </g>
     </g>
    </g>
   </g>
  </g>
  <g partID="1531541">
   <g transform="translate(26.8818,55.3949)">
    <g transform="matrix(-1,0,0,-1,0,0)">
     <g id="copper1">
      <g id="copper0">
       <rect width="4.32" x="5.616" y="4.60063" fill="none" height="4.32" stroke="black" id="square" stroke-width="1.44"/>
       <circle fill="none" cx="7.776" cy="6.76063" stroke="black" id="connector0pin" r="2.16" stroke-width="1.44"/>
       <circle fill="none" cx="7.776" cy="16.6819" stroke="black" id="connector1pin" r="2.16" stroke-width="1.44"/>
      </g>
     </g>
    </g>
   </g>
  </g>
  <g partID="1567501">
   <g transform="translate(79.9458,5.07392)">
    <g  id="copper1">
     <g  id="copper0">
      <rect width="3.96" x="1.98" y="5.58" fill="none"  height="3.96" stroke="black" id="rect11" stroke-width="1.44"/>
      <circle fill="none" cx="3.96"  cy="7.56" stroke="black" r="1.98" id="connector0pin" stroke-width="1.44"/>
      <circle fill="none" cx="11.16"  cy="7.56" stroke="black" r="1.98" id="connector1pin" stroke-width="1.44"/>
     </g>
    </g>
   </g>
  </g>
  <g partID="56641">
   <g transform="translate(26.3058,9.03392)">
    <g  id="copper1">
     <g  id="copper0">
      <circle fill="none" cx="43.2"  cy="3.6" stroke="black" id="connector14pad" r="2.052" stroke-width="1.224"/>
      <circle fill="none" cx="36"  cy="3.6" stroke="black" id="connector15pad" r="2.052" stroke-width="1.224"/>
      <circle fill="none" cx="28.8"  cy="3.6" stroke="black" id="connector16pad" r="2.052" stroke-width="1.224"/>
      <circle fill="none" cx="21.6"  cy="3.6" stroke="black" id="connector17pad" r="2.052" stroke-width="1.224"/>
      <circle fill="none" cx="14.4"  cy="3.6" stroke="black" id="connector18pad" r="2.052" stroke-width="1.224"/>
      <circle fill="none" cx="7.2"  cy="3.6" stroke="black" id="connector19pad" r="2.052" stroke-width="1.224"/>
      <circle fill="none" cx="46.8"  cy="10.8" stroke="black" id="connector25pad" r="2.052" stroke-width="1.224"/>
      <circle fill="none" cx="46.8"  cy="18" stroke="black" id="connector26pad" r="2.052" stroke-width="1.224"/>
      <circle fill="none" cx="46.8"  cy="25.2" stroke="black" id="connector27pad" r="2.052" stroke-width="1.224"/>
      <circle fill="none" cx="46.8"  cy="32.4" stroke="black" id="connector28pad" r="2.052" stroke-width="1.224"/>
      <circle fill="none" cx="46.8"  cy="39.6" stroke="black" id="connector29pad" r="2.052" stroke-width="1.224"/>
      <circle fill="none" cx="38.519"  cy="35.64" stroke="black" id="connector21pad" r="2.052" stroke-width="1.224"/>
      <circle fill="none" cx="38.519"  cy="42.84" stroke="black" id="connector20pad" r="2.052" stroke-width="1.224"/>
      <circle fill="none" cx="46.8"  cy="46.8" stroke="black" id="connector30pad" r="2.052" stroke-width="1.224"/>
      <circle fill="none" cx="46.8"  cy="54" stroke="black" id="connector31pad" r="2.052" stroke-width="1.224"/>
      <circle fill="none" cx="46.8"  cy="61.2" stroke="black" id="connector32pad" r="2.052" stroke-width="1.224"/>
      <circle fill="none" cx="46.8"  cy="68.4" stroke="black" id="connector33pad" r="2.052" stroke-width="1.224"/>
      <circle fill="none" cx="46.8"  cy="75.6" stroke="black" id="connector34pad" r="2.052" stroke-width="1.224"/>
      <circle fill="none" cx="46.8"  cy="82.8" stroke="black" id="connector35pad" r="2.052" stroke-width="1.224"/>
      <circle fill="none" cx="46.8"  cy="90" stroke="black" id="connector36pad" r="2.052" stroke-width="1.224"/>
      <circle fill="none" cx="3.6"  cy="90" stroke="black" id="connector37pad" r="2.052" stroke-width="1.224"/>
      <circle fill="none" cx="3.6"  cy="82.8" stroke="black" id="connector38pad" r="2.052" stroke-width="1.224"/>
      <circle fill="none" cx="3.6"  cy="75.6" stroke="black" id="connector39pad" r="2.052" stroke-width="1.224"/>
      <circle fill="none" cx="3.6"  cy="68.4" stroke="black" id="connector40pad" r="2.052" stroke-width="1.224"/>
      <circle fill="none" cx="3.6"  cy="61.2" stroke="black" id="connector41pad" r="2.052" stroke-width="1.224"/>
      <circle fill="none" cx="3.6"  cy="54" stroke="black" id="connector42pad" r="2.052" stroke-width="1.224"/>
      <circle fill="none" cx="3.6"  cy="46.8" stroke="black" id="connector43pad" r="2.052" stroke-width="1.224"/>
      <circle fill="none" cx="3.6"  cy="39.6" stroke="black" id="connector44pad" r="2.052" stroke-width="1.224"/>
      <circle fill="none" cx="3.6"  cy="32.4" stroke="black" id="connector45pad" r="2.052" stroke-width="1.224"/>
      <circle fill="none" cx="3.6"  cy="25.2" stroke="black" id="connector46pad" r="2.052" stroke-width="1.224"/>
      <circle fill="none" cx="3.6"  cy="18" stroke="black" id="connector47pad" r="2.052" stroke-width="1.224"/>
      <circle fill="none" cx="3.6"  cy="10.8" stroke="black" id="connector48pad" r="2.052" stroke-width="1.224"/>
     </g>
    </g>
   </g>
  </g>
  <g partID="1491271">
   <g transform="translate(80.8098,94.5339)">
    <g transform="matrix(0,-1,1,0,0,0)">
     <g  id="copper1">
      <!-- <rect width="55" x="10" y="15.5" fill="none" height="55" stroke="rgb(255, 191, 0)" stroke-width="20" />  -->
      <circle fill="none" cx="2.7"  cy="3.096" stroke="black" r="1.98" id="connector0pin" stroke-width="1.44"/>
      <circle fill="none" cx="31.5"  cy="3.096" stroke="black" r="1.98" id="connector1pin" stroke-width="1.44"/>
     </g>
    </g>
   </g>
  </g>
  <g partID="1580160">
   <line stroke="black" stroke-linecap="round" y1="41.4339" x1="11.9058" y2="60.8659" stroke-width="1.728" x2="11.9058"/>
  </g>
  <g partID="1580130">
   <line stroke="black" stroke-linecap="round" y1="39.5043" x1="17.0105" y2="41.4336" stroke-width="1.728" x2="11.9058"/>
  </g>
  <g partID="1580080">
   <line stroke="black" stroke-linecap="round" y1="39.2596" x1="21.2779" y2="40.8863" stroke-width="1.728" x2="27.7337"/>
  </g>
  <g partID="1574260">
   <line stroke="black" stroke-linecap="round" y1="48.6339" x1="27.6658" y2="48.6339" stroke-width="1.728" x2="21.3458"/>
  </g>
  <g partID="1557610">
   <line stroke="black" stroke-linecap="round" y1="84.6339" x1="21.2738" y2="84.6339" stroke-width="1.728" x2="27.6658"/>
  </g>
  <g partID="1558210">
   <line stroke="black" stroke-linecap="round" y1="96.8659" x1="11.9058" y2="94.0019" stroke-width="1.728" x2="11.9058"/>
  </g>
  <g partID="1558120">
   <line stroke="black" stroke-linecap="round" y1="89.6659" x1="11.9058" y2="86.8019" stroke-width="1.728" x2="11.9058"/>
  </g>
  <g partID="1558010">
   <line stroke="black" stroke-linecap="round" y1="82.4659" x1="11.9058" y2="79.6019" stroke-width="1.728" x2="11.9058"/>
  </g>
  <g partID="1557880">
   <line stroke="black" stroke-linecap="round" y1="75.2659" x1="11.9058" y2="72.4019" stroke-width="1.728" x2="11.9058"/>
  </g>
  <g partID="1557730">
   <line stroke="black" stroke-linecap="round" y1="68.0659" x1="11.9058" y2="65.2019" stroke-width="1.728" x2="11.9058"/>
  </g>
  <g partID="1557700">
   <line stroke="black" stroke-linecap="round" y1="61.8313" x1="20.9097" y2="57.0764" stroke-width="1.728" x2="28.042"/>
  </g>
  <g partID="1557670">
   <line stroke="black" stroke-linecap="round" y1="69.0313" x1="20.9097" y2="64.2764" stroke-width="1.728" x2="28.042"/>
  </g>
  <g partID="1557640">
   <line stroke="black" stroke-linecap="round" y1="76.2313" x1="20.9097" y2="71.4764" stroke-width="1.728" x2="28.042"/>
  </g>
  <g partID="1558620">
   <line stroke="black" stroke-linecap="round" y1="56.3163" x1="83.9058" y2="60.9738" stroke-width="1.728" x2="83.9058"/>
  </g>
  <g partID="1558570">
   <line stroke="black" stroke-linecap="round" y1="91.8339" x1="75.3458" y2="91.8339" stroke-width="1.728" x2="81.8458"/>
  </g>
  <g partID="1563960">
   <line stroke="black" stroke-linecap="round" y1="41.4339" x1="42.4634" y2="41.4339" stroke-width="1.728" x2="32.1458"/>
  </g>
  <g partID="1563930">
   <line stroke="black" stroke-linecap="round" y1="111.194" x1="42.4627" y2="41.4336" stroke-width="1.728" x2="42.4631"/>
  </g>
  <g partID="1563900">
   <line stroke="black" stroke-linecap="round" y1="111.196" x1="62.3974" y2="54.1117" stroke-width="1.728" x2="64.7336"/>
  </g>
  <g partID="1563870">
   <line stroke="black" stroke-linecap="round" y1="44.6739" x1="52.3842" y2="111.194" stroke-width="1.728" x2="52.3843"/>
  </g>
  <g partID="1563840">
   <line stroke="black" stroke-linecap="round" y1="44.6739" x1="62.585" y2="44.6739" stroke-width="1.728" x2="52.3844"/>
  </g>
  <g partID="1563650">
   <line stroke="black" stroke-linecap="round" y1="99.0339" x1="27.6658" y2="99.0339" stroke-width="1.728" x2="21.2738"/>
  </g>
  <g partID="1563420">
   <line stroke="black" stroke-linecap="round" y1="91.8339" x1="27.6658" y2="91.8339" stroke-width="1.728" x2="21.2738"/>
  </g>
  <g partID="1563050">
   <line stroke="black" stroke-linecap="round" y1="32.9914" x1="82.042" y2="28.2764" stroke-width="1.728" x2="74.9696"/>
  </g>
  <g partID="1569420">
   <line stroke="black" stroke-linecap="round" y1="14.6939" x1="83.9058" y2="31.9939" stroke-width="1.728" x2="83.9058"/>
  </g>
  <g partID="1569390">
   <line stroke="black" stroke-linecap="round" y1="41.4339" x1="91.1058" y2="43.3633" stroke-width="1.728" x2="86.0012"/>
  </g>
  <g partID="1569360">
   <line stroke="black" stroke-linecap="round" y1="14.6939" x1="91.1058" y2="41.4339" stroke-width="1.728" x2="91.1058"/>
  </g>
  <g partID="1571000">
   <line stroke="black" stroke-linecap="round" y1="5.43392" x1="91.1058" y2="10.5739" stroke-width="1.728" x2="91.1058"/>
  </g>
  <g partID="1570970">
   <line stroke="black" stroke-linecap="round" y1="5.43392" x1="78.3058" y2="5.43392" stroke-width="1.728" x2="91.1058"/>
  </g>
  <g partID="1570940">
   <line stroke="black" stroke-linecap="round" y1="17.7271" x1="73.8666" y2="5.43392" stroke-width="1.728" x2="78.3058"/>
  </g>
 </g>
</svg>
