<?xml version='1.0' encoding='UTF-8' standalone='no'?>
<!-- Created with Fritzing (http://www.fritzing.org/) -->
<svg xmlns="http://www.w3.org/2000/svg" width="1.41346in" x="0in" version="1.2" y="0in"  height="1.80969in" viewBox="0 0 101.769 130.298" baseProfile="tiny" xmlns:svg="http://www.w3.org/2000/svg">
 <g transform="matrix(-1, 0, 0, 1, 101.769, 0)">
  <g partID="19672">
   <g id="silkscreen">
    <rect width="101.193" x="0.288" y="0.288" fill="none" height="129.722" stroke="black" stroke-width="0.576"/>
   </g>
  </g>
  <g partID="19670">
   <g id="board">
    <rect width="101.193" x="0.288" y="0.288" fill="none" height="129.722" stroke="black" fill-opacity="0.5" id="boardoutline" stroke-width="0.5"/>
   </g>
  </g>
  <g partID="1571080">
   <g transform="translate(7.03296,9.72776)">
    <g id="silkscreen">
     <path fill="black" fill-rule="evenodd" d="M4.49894,17.8372l0.356486,0l0,-1.20907c0,-0.436703,-0.300541,-0.58352,-0.737343,-0.58352c-0.265613,0,-0.461271,0.0697579,-0.597531,0.258608l0.279525,0.213122c0.0628512,-0.101332,0.150271,-0.136457,0.33547,-0.136457c0.255056,0,0.363393,0.0595952,0.363393,0.227231l0,0.185199l-0.492746,0c-0.380857,0,-0.576515,0.241242,-0.576515,0.524221c0,0.307547,0.230586,0.541685,0.625454,0.541685c0.241144,0,0.363491,-0.0558458,0.436801,-0.178292l0.0070054,0L4.49894,17.8372zM4.49894,17.2151c0,0.27617,-0.101332,0.307547,-0.398321,0.307547c-0.241144,0,-0.335568,-0.104884,-0.335568,-0.223581c0,-0.129353,0.0978782,-0.213319,0.307645,-0.213319l0.426244,0L4.49894,17.2151z"/>
     <path fill="black" fill-rule="evenodd" d="M5.24694,17.8372l0.356387,0l0,-1.06591c0,-0.25841,0.171287,-0.370398,0.346027,-0.370398c0.0908728,0,0.150271,0.0244695,0.234138,0.0875181l0.258509,-0.307547c-0.108337,-0.0838674,-0.227034,-0.13626,-0.370398,-0.13626c-0.188652,0,-0.349481,0.0699553,-0.461271,0.209669L5.60333,16.2543l0,-0.188652l-0.356387,0L5.24694,17.8372z"/>
     <path fill="black" fill-rule="evenodd" d="M7.50811,17.8372l0.356387,0l0,-2.4881l-0.356387,0l0,0.905176c-0.132807,-0.125801,-0.276072,-0.209669,-0.457817,-0.209669c-0.216674,0,-0.373851,0.0976809,-0.475183,0.230685c-0.0978782,0.125604,-0.125801,0.240847,-0.125801,0.674491c0,0.436703,0.0279229,0.551946,0.125801,0.677747c0.101332,0.132807,0.258509,0.230685,0.475183,0.230685c0.181746,0,0.346027,-0.0840647,0.457817,-0.206215L7.50811,17.8372zM7.15863,16.4009c0.332016,0,0.349481,0.293733,0.349481,0.548888c0,0.258608,-0.0174642,0.551946,-0.349481,0.551946c-0.33547,0,-0.352934,-0.275973,-0.352934,-0.551946C6.80569,16.6771,6.82316,16.4009,7.15863,16.4009"/>
     <polygon fill="black" points="9.68353,17.8372,9.99818,17.8372,10.5641,16.0656,10.1866,16.0656,9.84791,17.3061,9.84071,17.3061,9.43893,16.0656,9.18033,16.0656,8.77855,17.3061,8.77155,17.3061,8.43252,16.0656,8.05522,16.0656,8.62128,17.8372,8.93573,17.8372,9.30613,16.5967,9.31313,16.5967" fill-rule="evenodd"/>
     <path fill="black" fill-rule="evenodd" d="M11.6611,17.8372l0.356486,0l0,-1.20907c0,-0.436703,-0.30064,-0.58352,-0.737343,-0.58352c-0.265514,0,-0.46137,0.0697579,-0.597629,0.258608l0.279624,0.213122c0.0628512,-0.101332,0.150073,-0.136457,0.335272,-0.136457c0.255154,0,0.363491,0.0595952,0.363491,0.227231l0,0.185199l-0.492746,0c-0.380758,0,-0.576613,0.241242,-0.576613,0.524221c0,0.307547,0.230685,0.541685,0.625552,0.541685c0.241045,0,0.363491,-0.0558458,0.4369,-0.178292l0.00690673,0L11.661,17.8372zM11.6611,17.2151c0,0.27617,-0.101332,0.307547,-0.398321,0.307547c-0.241045,0,-0.33547,-0.104884,-0.33547,-0.223581c0,-0.129353,0.0978782,-0.213319,0.307547,-0.213319l0.426244,0L11.6611,17.2151z"/>
     <path fill="black" fill-rule="evenodd" d="M12.4092,17.8372l0.356289,0l0,-1.06591c0,-0.25841,0.17109,-0.370398,0.345928,-0.370398c0.0909715,0,0.150271,0.0244695,0.234138,0.0875181l0.258608,-0.307547c-0.108337,-0.0838674,-0.227231,-0.13626,-0.370398,-0.13626c-0.188652,0,-0.349382,0.0699553,-0.461172,0.209669l-0.00710406,0l0,-0.188652l-0.356289,0L12.4092,17.8372z"/>
     <path fill="black" fill-rule="evenodd" d="M15.0713,17.086l0,-0.293733c0,-0.457719,-0.338824,-0.747703,-0.73014,-0.747703c-0.342475,0,-0.730337,0.223581,-0.730337,0.911885c0,0.726884,0.422791,0.901723,0.786282,0.901723c0.237591,0,0.464626,-0.0838674,0.639366,-0.286531l-0.258608,-0.220226c-0.104884,0.108534,-0.251701,0.171287,-0.387764,0.171287c-0.244696,0,-0.422791,-0.146817,-0.422791,-0.436703L15.0713,17.086zM13.9673,16.7923c0.00690673,-0.269066,0.164183,-0.41243,0.373851,-0.41243s0.363491,0.143364,0.373851,0.41243L13.9673,16.7923z"/>
     <path fill="black" fill-rule="evenodd" d="M0,14.1514c0,0.38431,0.0558458,0.531127,0.192106,0.681398c0.0978782,0.108337,0.26216,0.227034,0.538232,0.227034c0.275973,0,0.440255,-0.118697,0.538133,-0.227034c0.13626,-0.150271,0.192204,-0.297187,0.192204,-0.681398c0,-0.380955,-0.0559445,-0.527674,-0.192204,-0.677945c-0.0978782,-0.108337,-0.26216,-0.227231,-0.538133,-0.227231c-0.276072,0,-0.440353,0.118894,-0.538232,0.227231C0.0558458,13.6238,0,13.7704,0,14.1514M1.10419,14.1548c0,0.255154,-0.0209175,0.324912,-0.0873208,0.419337c-0.0524911,0.0734086,-0.164281,0.129353,-0.286531,0.129353c-0.122348,0,-0.234138,-0.0558458,-0.286531,-0.129353c-0.0664033,-0.0944248,-0.0874195,-0.164183,-0.0874195,-0.42279c0,-0.255154,0.0210162,-0.32511,0.0874195,-0.419337c0.0523925,-0.0734086,0.164183,-0.129353,0.286531,-0.129353c0.122249,0,0.234039,0.0558458,0.286531,0.129353C1.08327,13.8263,1.10419,13.8962,1.10419,14.1548"/>
     <path fill="black" fill-rule="evenodd" d="M4.88099,14.2877l0,-0.293536c0,-0.457916,-0.338923,-0.7479,-0.730239,-0.7479c-0.342574,0,-0.730337,0.223778,-0.730337,0.912083c0,0.726686,0.422791,0.901525,0.786183,0.901525c0.23769,0,0.464724,-0.0838674,0.639464,-0.286531l-0.258608,-0.220029c-0.104785,0.108337,-0.251504,0.171287,-0.387764,0.171287c-0.244696,0,-0.422889,-0.146817,-0.422889,-0.4369L4.88099,14.2877zM3.7768,13.9942c0.0070054,-0.269264,0.164281,-0.41243,0.37395,-0.41243s0.363393,0.143167,0.373851,0.41243L3.7768,13.9942z"/>
     <path fill="black" fill-rule="evenodd" d="M5.18518,15.0388l0.356387,0l0,-1.05505c0,-0.241242,0.150271,-0.380955,0.352934,-0.380955c0.19921,0,0.349481,0.139713,0.349481,0.380955l0,1.05505l0.356387,0l0,-1.1775c0,-0.401972,-0.314454,-0.615093,-0.590525,-0.615093c-0.188652,0,-0.349481,0.0699553,-0.461172,0.209669l-0.00710406,0l0,-0.188652l-0.356387,0L5.18518,15.0388z"/>
     <path fill="black" fill-rule="evenodd" d="M7.56405,14.7419c0.227133,0.213122,0.492746,0.318005,0.779276,0.318005c0.412332,0,0.733791,-0.199111,0.733791,-0.545138c0,-0.28288,-0.14662,-0.506658,-0.513663,-0.531127l-0.293536,-0.0208189c-0.178194,-0.0141095,-0.234039,-0.0909715,-0.234039,-0.167833c0,-0.12215,0.076862,-0.213122,0.303896,-0.213122c0.192303,0,0.335667,0.0665019,0.47538,0.164183l0.220029,-0.25841c-0.17474,-0.146817,-0.38431,-0.241242,-0.695508,-0.241242c-0.373851,0,-0.660382,0.185199,-0.660382,0.545138c0,0.303896,0.216674,0.478735,0.510111,0.503204l0.314552,0.0279229c0.122446,0.0103601,0.216674,0.0489391,0.216674,0.17474c0,0.150271,-0.146916,0.227034,-0.349481,0.227034c-0.237591,0,-0.405326,-0.0766647,-0.55905,-0.227034L7.56405,14.7419z"/>
     <path fill="black" fill-rule="evenodd" d="M9.27978,14.1514c0,0.38431,0.0560432,0.531127,0.192303,0.681398c0.0978782,0.108337,0.262061,0.227034,0.538034,0.227034c0.276171,0,0.440353,-0.118697,0.538232,-0.227034c0.13626,-0.150271,0.192106,-0.297187,0.192106,-0.681398c0,-0.380955,-0.0558458,-0.527674,-0.192106,-0.677945c-0.0978782,-0.108337,-0.262061,-0.227231,-0.538232,-0.227231c-0.275973,0,-0.440156,0.118894,-0.538034,0.227231C9.33583,13.6238,9.27978,13.7704,9.27978,14.1514M10.384,14.1548c0,0.255154,-0.0208189,0.324912,-0.0873208,0.419337c-0.0523925,0.0734086,-0.164183,0.129353,-0.286531,0.129353c-0.12215,0,-0.234138,-0.0558458,-0.286333,-0.129353c-0.0665019,-0.0944248,-0.0875181,-0.164183,-0.0875181,-0.42279c0,-0.255154,0.0210162,-0.32511,0.0875181,-0.419337c0.0521951,-0.0734086,0.164183,-0.129353,0.286333,-0.129353c0.122348,0,0.234138,0.0558458,0.286531,0.129353C10.3632,13.8263,10.384,13.8962,10.384,14.1548"/>
     <path fill="black" fill-rule="evenodd" d="M11.0447,14.4449c0,0.401774,0.314552,0.614896,0.594077,0.614896c0.185002,0,0.345928,-0.0699553,0.457719,-0.209669l0.00690673,0l0,0.18885l0.356289,0l0,-1.77177l-0.356289,0l0,1.05525c0,0.241045,-0.150271,0.380955,-0.349579,0.380955c-0.202565,0,-0.352835,-0.139911,-0.352835,-0.380955l0,-1.05525l-0.356289,0L11.0447,14.4449z"/>
     <path fill="black" fill-rule="evenodd" d="M12.8507,15.0388l0.356486,0l0,-1.06571c0,-0.258608,0.17109,-0.370398,0.345928,-0.370398c0.0909715,0,0.150271,0.0244695,0.234138,0.0873208l0.258608,-0.307547c-0.108534,-0.0838674,-0.227034,-0.13626,-0.370398,-0.13626c-0.188652,0,-0.349579,0.0699553,-0.46137,0.209669l-0.00690673,0l0,-0.188652l-0.356486,0L12.8507,15.0388z"/>
     <path fill="black" fill-rule="evenodd" d="M15.1809,14.5183c-0.0873208,0.108337,-0.213122,0.185199,-0.359742,0.185199c-0.289984,0,-0.46137,-0.16438,-0.46137,-0.548888c0,-0.387763,0.171287,-0.551946,0.46137,-0.551946c0.14662,0,0.27252,0.076862,0.359742,0.185199l0.262061,-0.234138c-0.153625,-0.178292,-0.366945,-0.307547,-0.635912,-0.307547c-0.40878,0,-0.803647,0.258608,-0.803647,0.908432c0,0.646766,0.394868,0.905176,0.803647,0.905176c0.269066,0,0.482386,-0.129353,0.635912,-0.307349L15.1809,14.5183z"/>
     <path fill="black" fill-rule="evenodd" d="M16.9943,14.2877l0,-0.293536c0,-0.457916,-0.339219,-0.7479,-0.730337,-0.7479c-0.342672,0,-0.730337,0.223778,-0.730337,0.912083c0,0.726686,0.422791,0.901525,0.786282,0.901525c0.237591,0,0.464823,-0.0838674,0.639366,-0.286531l-0.258608,-0.220029c-0.104884,0.108337,-0.251504,0.171287,-0.387764,0.171287c-0.244696,0,-0.422791,-0.146817,-0.422791,-0.4369L16.9943,14.2877zM15.8901,13.9942c0.00690673,-0.269264,0.164183,-0.41243,0.373851,-0.41243s0.363294,0.143167,0.373851,0.41243L15.8901,13.9942z"/>
     <path fill="black" d="M2.47073,14.7035c0.33547,0,0.352934,-0.27617,0.352934,-0.54869c0,-0.27617,-0.0174642,-0.552144,-0.352934,-0.552144c-0.331918,0,-0.349481,0.293536,-0.349481,0.552144C2.12125,14.41,2.13872,14.7035,2.47073,14.7035M1.76349,17.8372l0,-4.56989l0.357769,0l0,0.185199c0.111889,-0.122348,0.276072,-0.206215,0.457817,-0.206215c0.216575,0,0.37395,0.0978782,0.475282,0.230685c0.0977796,0.125801,0.125702,0.241045,0.125702,0.677945c0,0.433249,-0.0279229,0.54869,-0.125702,0.674294c-0.101332,0.132807,-0.258706,0.230685,-0.475282,0.230685c-0.181746,0,-0.325011,-0.0838674,-0.457817,-0.209669l-0.00128268,1.40404c0.118796,-0.139713,0.279525,-0.209669,0.468178,-0.209669c0.276072,0,0.590525,0.213122,0.590525,0.614896l0,1.1777l-0.356387,0l0,-1.05525c0,-0.241242,-0.150271,-0.380955,-0.349481,-0.380955c-0.202663,0,-0.352835,0.139713,-0.352835,0.380955l0,1.05525L1.76349,17.8372z"/>
     <g>
      <path fill="black" d="M15.0306,5.68364l-1.622,-0.301627c-0.039467,-0.00740007,-0.0826834,-0.0444991,-0.0960035,-0.0825847l-0.497186,-1.15994c-0.0185495,-0.0358163,-0.0149975,-0.0920568,0.00789341,-0.125406l0.945038,-1.3774c0.0225949,-0.0331523,0.0181548,-0.0835714,-0.0103601,-0.112086l-1.18036,-1.18036c-0.0285149,-0.0285149,-0.0788354,-0.0331523,-0.111988,-0.0103601l-1.40157,0.961811c-0.0331523,0.0227922,-0.0899848,0.0268376,-0.125998,0.00907741l-1.12442,-0.460284c-0.0381843,-0.0126294,-0.075382,-0.0553525,-0.0828808,-0.0949182L9.41851,0.0719286C9.41121,0.032363,9.37223,0,9.33198,0L7.66252,0c-0.0401577,0,-0.0791314,0.032363,-0.0864328,0.0719286L7.26391,1.74957c-0.00749873,0.0395657,-0.0445977,0.0822887,-0.0828808,0.0949182l-1.12451,0.460284c-0.0361123,0.0177602,-0.0929448,0.0137148,-0.125998,-0.00907741l-1.40147,-0.961811c-0.033251,-0.0227922,-0.0836701,-0.0181548,-0.112086,0.0103601L3.23649,2.52461c-0.0284163,0.0285149,-0.0331523,0.078934,-0.0103601,0.112086l0.945137,1.3774c0.0226935,0.0333496,0.0262456,0.0895901,0.00779474,0.125406l-0.497285,1.15994c-0.0132215,0.0380857,-0.0563392,0.0751847,-0.0960035,0.0825847l-1.6219,0.301627c-0.0396644,0.00749873,-0.0719287,0.0463737,-0.0719287,0.0866301l9.86676e-05,1.66936c0,0.0402564,0.032363,0.0794274,0.0719287,0.0866301l1.58213,0.294424c0.0395657,0.00720273,0.0818941,0.0447951,0.0939315,0.0831767l0.49393,1.23384c0.0176615,0.036211,0.0135175,0.0928462,-0.00937342,0.125998l-0.898664,1.30961c-0.0226935,0.0331523,-0.0180562,0.0836701,0.0103601,0.112185l1.18056,1.18036c0.0284163,0.0283176,0.0788354,0.032955,0.112086,0.0103601l1.28643,-0.882976c0.0331523,-0.0226935,0.0887021,-0.0244695,0.123334,-0.0042427l0.567338,0.302909c0.035915,0.0183522,0.0778487,0.00286136,0.0932408,-0.0343363L7.76908,8.43104c0.0154908,-0.0371977,0,-0.0846567,-0.0343363,-0.105673l-0.141983,-0.0869261c-0.0262456,-0.0159841,-0.0618646,-0.0435124,-0.0897875,-0.0687713c-0.512183,-0.327971,-0.851994,-0.901723,-0.851994,-1.5551c0,-1.01963,0.826637,-1.84617,1.84617,-1.84617c1.01953,0,1.84607,0.826538,1.84607,1.84617c0,0.653376,-0.339712,1.22713,-0.851994,1.5551c-0.0277256,0.0252589,-0.0634432,0.0527871,-0.0895901,0.0687713l-0.141983,0.0869261c-0.034139,0.0210162,-0.0497285,0.0684753,-0.0343363,0.105673l1.1697,2.82663c0.0153921,0.0371977,0.0572272,0.0525898,0.0932408,0.0343363l0.567338,-0.302909c0.034731,-0.0202268,0.0901822,-0.0185495,0.123334,0.0042427l1.28653,0.882976c0.0331523,0.0225949,0.0836701,0.0179575,0.111988,-0.0103601l1.18056,-1.18036c0.0285149,-0.0285149,0.0331523,-0.0790327,0.0103601,-0.112185l-0.898763,-1.30961c-0.0226935,-0.0331523,-0.0269362,-0.0897875,-0.00927475,-0.125998l0.49393,-1.23384c0.0121361,-0.0383817,0.0541685,-0.075974,0.0938329,-0.0831767l1.58213,-0.294424c0.039467,-0.00720273,0.0719287,-0.0463737,0.0719287,-0.0866301l0.000197335,-1.66936C15.1025,5.73002,15.0701,5.69114,15.0306,5.68364zM14.7471,7.2571l-1.36378,0.253773c-0.103305,0.0204242,-0.170399,0.0636406,-0.228218,0.113566c-0.0523925,0.0480511,-0.0990622,0.103897,-0.131919,0.190823l-0.490476,1.22496c-0.0312776,0.0726193,-0.0378883,0.133793,-0.0384804,0.189836c0.00207202,0.0884061,0.0165762,0.173458,0.0828808,0.274394l0.772962,1.12639l-0.866499,0.8664l-1.1035,-0.757372c-0.0965955,-0.0639366,-0.183028,-0.0794274,-0.266896,-0.08071c-0.0707446,0.00078934,-0.143364,0.0125308,-0.224567,0.0560432l-9.86676e-05,0l-0.286432,0.153033l-0.961417,-2.32332c0.0230882,-0.0166748,0.0444004,-0.033843,0.0659099,-0.0520965c0.596643,-0.392203,0.992004,-1.07035,0.992004,-1.83887c-0.000197335,-1.21598,-0.985393,-2.20127,-2.20127,-2.20147c-1.21578,0.000197335,-2.20108,0.985491,-2.20147,2.20147c0.000197335,0.768521,0.39546,1.44656,0.992201,1.83877c0.0213122,0.0181548,0.0425257,0.0352243,0.0659099,0.0520965l-0.961318,2.32342l-0.286432,-0.153033c-0.0823874,-0.0441044,-0.156191,-0.0553525,-0.225061,-0.0560432c-0.0848541,0.00138135,-0.170596,0.0169708,-0.267192,0.0811047l-1.10281,0.756977l-0.866696,-0.8664l0.77306,-1.12678c0.0657126,-0.10074,0.0806114,-0.185298,0.0826834,-0.274c-0.000789341,-0.0574245,-0.00809074,-0.118697,-0.038283,-0.189442l-0.491266,-1.22762c-0.0330536,-0.0864328,-0.0798221,-0.141391,-0.131623,-0.188948c-0.0581152,-0.0497284,-0.124617,-0.0926488,-0.228909,-0.11327l-1.3627,-0.253576l-9.86676e-05,-1.22535L3.6507,5.77047c0.101726,-0.0204242,0.166946,-0.0615685,0.224666,-0.10962c0.0514058,-0.0456831,0.0980756,-0.0983715,0.132807,-0.18214l0.000197335,9.86675e-05l0.494324,-1.15342c0.0333496,-0.0729153,0.0427231,-0.13774,0.0433151,-0.200887c-0.00187468,-0.0863341,-0.0161815,-0.170794,-0.0808087,-0.270645l-0.820519,-1.19555l0.866499,-0.866498l1.21835,0.836207c0.101726,0.0663046,0.185298,0.0802167,0.273704,0.0821901c0.0578192,-0.000493338,0.118993,-0.0078934,0.190034,-0.0383817l1.12027,-0.458508c0.0867288,-0.034139,0.141391,-0.0814994,0.188159,-0.133399c0.0487418,-0.0578192,0.0902808,-0.123137,0.1111,-0.224567L7.88453,0.39467l1.22525,0l0.271533,1.45929c0.0213122,0.103305,0.0628512,0.168425,0.111494,0.226047c0.0471631,0.0522938,0.101825,0.0996542,0.189343,0.133892l1.12047,0.458705c0.0702513,0.0298963,0.130044,0.0371977,0.188258,0.037987c0.0876168,-0.00226935,0.172076,-0.0159841,0.273704,-0.0821901l1.21874,-0.836503l0.8664,0.866597l-0.819434,1.19417c-0.0659099,0.0983715,-0.0803154,0.1851,-0.0822887,0.272026c0.000592005,0.0616672,0.00966942,0.124617,0.0407497,0.194375l0.497087,1.15994l9.86676e-05,0c0.0349283,0.0838674,0.0815981,0.136457,0.133103,0.18214c0.0575232,0.0478538,0.12215,0.0889981,0.224173,0.10962l1.40384,0.261074L14.7471,7.2571z"/>
     </g>
    </g>
   </g>
  </g>
  <g partID="1517352">
   <g transform="translate(16.9458,104.074)">
    <g transform="matrix(-1,0,0,-1,0,0)">
     <g id="silkscreen">
      <line stroke="black" y1="1.44" stroke-width="0.72" x1="1.44" y2="44.64" x2="1.44"/>
      <line stroke="black" y1="44.64" stroke-width="0.72" x1="1.44" y2="44.64" x2="8.64"/>
      <line stroke="black" y1="44.64" stroke-width="0.72" x1="8.64" y2="1.44" x2="8.64"/>
      <line stroke="black" y1="1.44" stroke-width="0.72" x1="8.64" y2="1.44" x2="1.44"/>
      <line stroke="black" y1="3.96" stroke-width="0.36" x1="1.44" y2="1.44" x2="3.96"/>
      <!-- 120 -->
     </g>
    </g>
   </g>
  </g>
  <g partID="1517072">
   <g transform="translate(14.0658,57.9939)">
    <g id="silkscreen">
     <line stroke="black" y1="1.44" stroke-width="0.72" x1="1.44" y2="44.64" x2="1.44"/>
     <line stroke="black" y1="44.64" stroke-width="0.72" x1="1.44" y2="44.64" x2="8.64"/>
     <line stroke="black" y1="44.64" stroke-width="0.72" x1="8.64" y2="1.44" x2="8.64"/>
     <line stroke="black" y1="1.44" stroke-width="0.72" x1="8.64" y2="1.44" x2="1.44"/>
     <line stroke="black" y1="3.96" stroke-width="0.36" x1="1.44" y2="1.44" x2="3.96"/>
     <!-- 120 -->
    </g>
   </g>
  </g>
  <g partID="1551722">
   <g transform="translate(76.1298,27.4731)">
    <g id="silkscreen">
     <line stroke="black" id="vertical-left" y1="1.44" stroke-width="0.72" x1="1.44" y2="31.9238" x2="1.44"/>
     <line stroke="black" id="bottom" y1="31.9238" stroke-width="0.72" x1="1.44" y2="31.9238" x2="16.992"/>
     <line stroke="black" id="vertical-right" y1="31.9238" stroke-width="0.72" x1="16.992" y2="1.44" x2="16.992"/>
     <line stroke="black" id="top" y1="1.44" stroke-width="0.72" x1="16.992" y2="1.44" x2="1.44"/>
     <line stroke="black" id="mid-vertical" y1="31.9238" stroke-width="0.36" x1="14.112" y2="1.44" x2="14.112"/>
    </g>
   </g>
  </g>
  <g partID="1519672">
   <g transform="translate(69.0662,105.658)">
    <g transform="matrix(0,1,-1,0,0,0)">
     <g id="silkscreen">
      <line stroke="black" id="vertical-left" y1="1.44" stroke-width="0.72" x1="1.44" y2="31.9238" x2="1.44"/>
      <line stroke="black" id="bottom" y1="31.9238" stroke-width="0.72" x1="1.44" y2="31.9238" x2="16.992"/>
      <line stroke="black" id="vertical-right" y1="31.9238" stroke-width="0.72" x1="16.992" y2="1.44" x2="16.992"/>
      <line stroke="black" id="top" y1="1.44" stroke-width="0.72" x1="16.992" y2="1.44" x2="1.44"/>
      <line stroke="black" id="mid-vertical" y1="31.9238" stroke-width="0.36" x1="14.112" y2="1.44" x2="14.112"/>
     </g>
    </g>
   </g>
  </g>
  <g partID="1531542">
   <g transform="translate(26.8818,55.3949)">
    <g transform="matrix(-1,0,0,-1,0,0)">
     <g id="silkscreen">
      <line stroke="black" id="vertical-left" y1="1.44" stroke-width="0.72" x1="1.44" y2="22.0026" x2="1.44"/>
      <line stroke="black" id="bottom" y1="22.0026" stroke-width="0.72" x1="1.44" y2="22.0026" x2="16.992"/>
      <line stroke="black" id="vertical-right" y1="22.0026" stroke-width="0.72" x1="16.992" y2="1.44" x2="16.992"/>
      <line stroke="black" id="top" y1="1.44" stroke-width="0.72" x1="16.992" y2="1.44" x2="1.44"/>
      <line stroke="black" id="mid-vertical" y1="22.0026" stroke-width="0.36" x1="14.112" y2="1.44" x2="14.112"/>
     </g>
    </g>
   </g>
  </g>
  <g partID="1567502">
   <g transform="translate(79.9458,5.07392)">
    <g id="silkscreen">
     <circle fill="none" cx="7.56" cy="7.56" stroke="black" r="7.2" id="circle7" stroke-width="0.72"/>
     <path fill="none" stroke="black" stroke-linecap="round" stroke-width="0.792" d="m2.88,3.6,2.16,0"/>
     <path fill="none" stroke="black" stroke-linecap="round" stroke-width="0.792" d="m2.88,11.52,2.16,0"/>
    </g>
   </g>
  </g>
  <g partID="1567130">
   <g transform="translate(6.65728,56.3072)">
    <g transform="matrix(0,1,-1,0,0,0)">
     <g id="silkscreen">
      <text x="26.0788" y="2.93386" fill="black" font-family="OCRA" text-anchor="middle" xmlns:xml="http://www.w3.org/XML/1998/namespace" id="label" xml:space="preserve" stroke-width="0" font-size="3.25984">1  2  4 8  16 32</text>
     </g>
    </g>
   </g>
  </g>
  <g partID="1567100">
   <g transform="translate(8.14608,31.3659)">
    <g transform="matrix(0,1,-1,0,0,0)">
     <g id="silkscreen">
      <text x="11.4476" y="2.94367" fill="black" font-family="OCRA" text-anchor="middle" xmlns:xml="http://www.w3.org/XML/1998/namespace" id="label" xml:space="preserve" stroke-width="0" font-size="3.27074">VCC/SIG</text>
     </g>
    </g>
   </g>
  </g>
  <g partID="1567070">
   <g transform="translate(95.569,62.549)">
    <g transform="matrix(0,-1,1,0,0,0)">
     <g id="silkscreen">
      <text x="17.9891" y="2.94367" fill="black" font-family="OCRA" text-anchor="middle" xmlns:xml="http://www.w3.org/XML/1998/namespace" id="label" xml:space="preserve" stroke-width="0" font-size="3.27074">DIN/+5V/GND</text>
     </g>
    </g>
   </g>
  </g>
  <g partID="1564040">
   <g transform="translate(33.7058,124.154)">
    <g id="silkscreen">
     <text x="18" y="2.94545" fill="black" font-family="OCRA" text-anchor="middle" xmlns:xml="http://www.w3.org/XML/1998/namespace" id="label" xml:space="preserve" stroke-width="0" font-size="3.27273">GND/SCL/SDA</text>
    </g>
   </g>
  </g>
  <g partID="19672">
   <g id="silkscreen">
    <rect width="101.193" x="0.288" y="0.288" fill="none" height="129.722" stroke="black" stroke-width="0.576"/>
   </g>
  </g>
  <g partID="56642">
   <g transform="translate(26.3058,9.03392)">
    <g id="silkscreen">
     <path fill="none" stroke="black" stroke-width="0.576" d="M0.288,0.288l0,93.022l49.824,0L50.112,0.288L0.288,0.288"/>
     <circle fill="none" cx="3.6" cy="68.4" stroke="black" r="2.88" stroke-width="0.72"/>
     <circle fill="none" cx="3.6" cy="61.2" stroke="black" r="2.88" stroke-width="0.72"/>
     <circle fill="none" cx="3.6" cy="46.8" stroke="black" r="2.88" stroke-width="0.72"/>
     <circle fill="none" cx="3.6" cy="90" stroke="black" r="2.88" stroke-width="0.72"/>
     <circle fill="none" cx="46.8" cy="90" stroke="black" r="2.88" stroke-width="0.72"/>
     <circle fill="none" cx="46.8" cy="82.8" stroke="black" r="2.88" stroke-width="0.72"/>
     <g>
      <g transform="matrix(-1.83697e-16, -1, 1, -1.83697e-16, 9.6121, 91.0803)">
       <text fill="black" font-family="'OCRA'" font-size="2.5">9</text>
      </g>
      <g transform="matrix(-1.83697e-16, -1, 1, -1.83697e-16, 9.6121, 83.8792)">
       <text fill="black" font-family="'OCRA'" font-size="2.5">8</text>
      </g>
      <g transform="matrix(-1.83697e-16, -1, 1, -1.83697e-16, 9.6121, 76.3196)">
       <text fill="black" font-family="'OCRA'" font-size="2.5">7</text>
      </g>
      <g transform="matrix(-1.83697e-16, -1, 1, -1.83697e-16, 9.6121, 69.4788)">
       <text fill="black" font-family="'OCRA'" font-size="2.5">6</text>
      </g>
      <g transform="matrix(-1.83697e-16, -1, 1, -1.83697e-16, 9.6121, 62.2795)">
       <text fill="black" font-family="'OCRA'" font-size="2.5">5</text>
      </g>
      <g transform="matrix(-1.83697e-16, -1, 1, -1.83697e-16, 9.6121, 55.0803)">
       <text fill="black" font-family="'OCRA'" font-size="2.5">4</text>
      </g>
      <g transform="matrix(-1.83697e-16, -1, 1, -1.83697e-16, 9.6121, 47.8792)">
       <text fill="black" font-family="'OCRA'" font-size="2.5">3</text>
      </g>
      <g transform="matrix(-1.83697e-16, -1, 1, -1.83697e-16, 9.2517, 40.3196)">
       <text fill="black" font-family="'OCRA'" font-size="2.5">2</text>
      </g>
      <g transform="matrix(-1.83697e-16, -1, 1, -1.83697e-16, 9.2517, 35.6399)">
       <text fill="black" font-family="'OCRA'" font-size="2.5">GND</text>
      </g>
      <g transform="matrix(-1.83697e-16, -1, 1, -1.83697e-16, 9.2517, 28.0803)">
       <text fill="black" font-family="'OCRA'" font-size="2.5">RST</text>
      </g>
      <g transform="matrix(-1.83697e-16, -1, 1, -1.83697e-16, 9.2517, 20.8792)">
       <text fill="black" font-family="'OCRA'" font-size="2.5">RXI</text>
      </g>
      <g transform="matrix(-1.83697e-16, -1, 1, -1.83697e-16, 9.2517, 13.6799)">
       <text fill="black" font-family="'OCRA'" font-size="2.5">TXO</text>
      </g>
      <g transform="matrix(1, 0, 0, 1, 33.0125, 8.7483)">
       <text fill="black" font-family="'OCRA'" font-size="2.5">TXO</text>
      </g>
      <g transform="matrix(1, 0, 0, 1, 26.1726, 8.7483)">
       <text fill="black" font-family="'OCRA'" font-size="2.5">RXI</text>
      </g>
      <g transform="matrix(-1.83697e-16, -1, 1, -1.83697e-16, 43.4519, 13.6799)">
       <text fill="black" font-family="'OCRA'" font-size="2.5">RAW</text>
      </g>
      <g transform="matrix(-1.83697e-16, -1, 1, -1.83697e-16, 43.4519, 20.8792)">
       <text fill="black" font-family="'OCRA'" font-size="2.5">GND</text>
      </g>
      <g transform="matrix(-1.83697e-16, -1, 1, -1.83697e-16, 43.4519, 28.0803)">
       <text fill="black" font-family="'OCRA'" font-size="2.5">RST</text>
      </g>
      <g transform="matrix(-1.83697e-16, -1, 1, -1.83697e-16, 43.4519, 35.2795)">
       <text fill="black" font-family="'OCRA'" font-size="2.5">VCC</text>
      </g>
      <g transform="matrix(-1.83697e-16, -1, 1, -1.83697e-16, 43.4519, 41.3997)">
       <text fill="black" font-family="'OCRA'" font-size="2.5">A3</text>
      </g>
      <g transform="matrix(-1.83697e-16, -1, 1, -1.83697e-16, 43.4519, 48.5999)">
       <text fill="black" font-family="'OCRA'" font-size="2.5">A2</text>
      </g>
      <g transform="matrix(-1.83697e-16, -1, 1, -1.83697e-16, 43.4519, 56.1604)">
       <text fill="black" font-family="'OCRA'" font-size="2.5">A1</text>
      </g>
      <g transform="matrix(-1.83697e-16, -1, 1, -1.83697e-16, 43.4519, 63.3596)">
       <text fill="black" font-family="'OCRA'" font-size="2.5">A0</text>
      </g>
      <g transform="matrix(-1.83697e-16, -1, 1, -1.83697e-16, 43.4519, 70.5598)">
       <text fill="black" font-family="'OCRA'" font-size="2.5">13</text>
      </g>
      <g transform="matrix(-1.83697e-16, -1, 1, -1.83697e-16, 43.4519, 77.76)">
       <text fill="black" font-family="'OCRA'" font-size="2.5">12</text>
      </g>
      <g transform="matrix(-1.83697e-16, -1, 1, -1.83697e-16, 43.4519, 84.9592)">
       <text fill="black" font-family="'OCRA'" font-size="2.5">11</text>
      </g>
      <g transform="matrix(-1.83697e-16, -1, 1, -1.83697e-16, 43.4519, 92.1604)">
       <text fill="black" font-family="'OCRA'" font-size="2.5">10</text>
      </g>
      <g transform="matrix(1, 0, 0, 1, 18.6121, 8.7483)">
       <text fill="black" font-family="'OCRA'" font-size="2.5">VCC</text>
      </g>
      <g transform="matrix(1, 0, 0, 1, 11.4124, 8.7483)">
       <text fill="black" font-family="'OCRA'" font-size="2.5">GND</text>
      </g>
      <g transform="matrix(-1.83697e-16, -1, 1, -1.83697e-16, 3.4919, 6.4788)">
       <text fill="black" font-family="'OCRA'" font-size="2.5">BLK</text>
      </g>
      <g transform="matrix(-1.83697e-16, -1, 1, -1.83697e-16, 48.8523, 6.4788)">
       <text fill="black" font-family="'OCRA'" font-size="2.5">GRN</text>
      </g>
     </g>
    </g>
   </g>
  </g>
  <g partID="1491272">
   <g transform="translate(80.8098,94.5339)">
    <g transform="matrix(0,-1,1,0,0,0)">
     <g id="silkscreen">
      <line stroke="black" y1="3.096" x1="5.4" y2="3.096" stroke-width="0.72" x2="10.584"/>
      <line stroke="black" y1="3.096" x1="24.984" y2="3.096" stroke-width="0.72" x2="28.8"/>
      <line stroke="black" y1="0.72" x1="10.584" y2="0.72" stroke-width="0.72" x2="24.984"/>
      <line stroke="black" y1="0.72" x1="24.984" y2="5.472" stroke-width="0.72" x2="24.984"/>
      <line stroke="black" y1="5.472" x1="24.984" y2="5.472" stroke-width="0.72" x2="10.584"/>
      <line stroke="black" y1="5.472" x1="10.584" y2="0.72" stroke-width="0.72" x2="10.584"/>
     </g>
    </g>
   </g>
  </g>
  <g id="partLabel" partID="1491270">
   <g transform="translate(80.4058,95.7299)">
    <g fill="#000000" font-family="'OCRA'" stroke="none" font-style="normal" fill-opacity="1" font-weight="normal" id="silkscreenLabel" font-size="5">
     <text x="0" y="3.75">R2</text>
    </g>
   </g>
  </g>
  <g id="partLabel" partID="1517070">
   <g transform="translate(25.5286,65.8235)">
    <g transform="matrix(0,1,-1,0,0,0)">
     <g fill="#000000" font-family="'OCRA'" stroke="none" font-style="normal" fill-opacity="1" font-weight="normal" id="silkscreenLabel" font-size="3">
      <text x="0" y="2.25">ADDRESS SELECT</text>
     </g>
    </g>
   </g>
  </g>
  <g id="partLabel" partID="1567500">
   <g transform="translate(73.0658,5.07392)">
    <g fill="#000000" font-family="'OCRA'" stroke="none" font-style="normal" fill-opacity="1" font-weight="normal" id="silkscreenLabel" font-size="5">
     <text x="0" y="3.75">C1</text>
    </g>
   </g>
  </g>
  <g id="partLabel" partID="1551720">
   <g transform="translate(77.8314,24.8371)">
    <g fill="#000000" font-family="'OCRA'" stroke="none" font-style="normal" fill-opacity="1" font-weight="normal" id="silkscreenLabel" font-size="3">
     <text x="0" y="2.25">PXL/PWR</text>
    </g>
   </g>
  </g>
  <g id="partLabel" partID="1531540">
   <g transform="translate(11.9508,29.9251)">
    <g fill="#000000" font-family="'OCRA'" stroke="none" font-style="normal" fill-opacity="1" font-weight="normal" id="silkscreenLabel" font-size="3">
     <text x="0" y="2.25">SWITCH</text>
    </g>
   </g>
  </g>
  <g id="partLabel" partID="1519670">
   <g transform="translate(39.785,104.221)">
    <g fill="#000000" font-family="'OCRA'" stroke="none" font-style="normal" fill-opacity="1" font-weight="normal" id="silkscreenLabel" font-size="3">
     <text x="0" y="2.25">RASPBERRY PI</text>
    </g>
   </g>
  </g>
  <g partID="1517351">
   <g transform="translate(16.9458,104.074)">
    <g transform="matrix(-1,0,0,-1,0,0)">
     <g id="copper1">
      <g id="copper0">
       <circle fill="white" cx="5.04" cy="5.04" stroke="white" id="connector0pin" r="2.088" stroke-width="2.16"/>
       <circle fill="white" cx="5.04" cy="12.24" stroke="white" id="connector1pin" r="2.088" stroke-width="2.16"/>
       <circle fill="white" cx="5.04" cy="19.44" stroke="white" id="connector2pin" r="2.088" stroke-width="2.16"/>
       <circle fill="white" cx="5.04" cy="26.64" stroke="white" id="connector3pin" r="2.088" stroke-width="2.16"/>
       <circle fill="white" cx="5.04" cy="33.84" stroke="white" id="connector4pin" r="2.088" stroke-width="2.16"/>
       <circle fill="white" cx="5.04" cy="41.04" stroke="white" id="connector5pin" r="2.088" stroke-width="2.16"/>
      </g>
     </g>
    </g>
   </g>
  </g>
  <g partID="1517071">
   <g transform="translate(14.0658,57.9939)">
    <g id="copper1">
     <g id="copper0">
      <circle fill="white" cx="5.04" cy="5.04" stroke="white" id="connector0pin" r="2.088" stroke-width="2.16"/>
      <circle fill="white" cx="5.04" cy="12.24" stroke="white" id="connector1pin" r="2.088" stroke-width="2.16"/>
      <circle fill="white" cx="5.04" cy="19.44" stroke="white" id="connector2pin" r="2.088" stroke-width="2.16"/>
      <circle fill="white" cx="5.04" cy="26.64" stroke="white" id="connector3pin" r="2.088" stroke-width="2.16"/>
      <circle fill="white" cx="5.04" cy="33.84" stroke="white" id="connector4pin" r="2.088" stroke-width="2.16"/>
      <circle fill="white" cx="5.04" cy="41.04" stroke="white" id="connector5pin" r="2.088" stroke-width="2.16"/>
     </g>
    </g>
   </g>
  </g>
  <g partID="1551721">
   <g transform="translate(76.1298,27.4731)">
    <g id="copper1">
     <g id="copper0">
      <rect width="4.32" x="5.616" y="4.60063" fill="white" height="4.32" stroke="white" id="square" stroke-width="2.16"/>
      <circle fill="white" cx="7.776" cy="6.76063" stroke="white" id="connector0pin" r="2.16" stroke-width="2.16"/>
      <circle fill="white" cx="7.776" cy="16.6819" stroke="white" id="connector1pin" r="2.16" stroke-width="2.16"/>
      <circle fill="white" cx="7.776" cy="26.6031" stroke="white" id="connector2pin" r="2.16" stroke-width="2.16"/>
     </g>
    </g>
   </g>
  </g>
  <g partID="1519671">
   <g transform="translate(69.0662,105.658)">
    <g transform="matrix(0,1,-1,0,0,0)">
     <g id="copper1">
      <g id="copper0">
       <rect width="4.32" x="5.616" y="4.60063" fill="white" height="4.32" stroke="white" id="square" stroke-width="2.16"/>
       <circle fill="white" cx="7.776" cy="6.76063" stroke="white" id="connector0pin" r="2.16" stroke-width="2.16"/>
       <circle fill="white" cx="7.776" cy="16.6819" stroke="white" id="connector1pin" r="2.16" stroke-width="2.16"/>
       <circle fill="white" cx="7.776" cy="26.6031" stroke="white" id="connector2pin" r="2.16" stroke-width="2.16"/>
      </g>
     </g>
    </g>
   </g>
  </g>
  <g partID="1531541">
   <g transform="translate(26.8818,55.3949)">
    <g transform="matrix(-1,0,0,-1,0,0)">
     <g id="copper1">
      <g id="copper0">
       <rect width="4.32" x="5.616" y="4.60063" fill="white" height="4.32" stroke="white" id="square" stroke-width="2.16"/>
       <circle fill="white" cx="7.776" cy="6.76063" stroke="white" id="connector0pin" r="2.16" stroke-width="2.16"/>
       <circle fill="white" cx="7.776" cy="16.6819" stroke="white" id="connector1pin" r="2.16" stroke-width="2.16"/>
      </g>
     </g>
    </g>
   </g>
  </g>
  <g partID="1567501">
   <g transform="translate(79.9458,5.07392)">
    <g id="copper1">
     <g id="copper0">
      <rect width="3.96" x="1.98" y="5.58" fill="white" height="3.96" stroke="white" id="rect11" stroke-width="2.16"/>
      <circle fill="white" cx="3.96" cy="7.56" stroke="white" r="1.98" id="connector0pin" stroke-width="2.16"/>
      <circle fill="white" cx="11.16" cy="7.56" stroke="white" r="1.98" id="connector1pin" stroke-width="2.16"/>
     </g>
    </g>
   </g>
  </g>
  <g partID="56641">
   <g transform="translate(26.3058,9.03392)">
    <g id="copper1">
     <g id="copper0">
      <circle fill="white" cx="43.2" cy="3.6" stroke="white" id="connector14pad" r="2.052" stroke-width="1.944"/>
      <circle fill="white" cx="36" cy="3.6" stroke="white" id="connector15pad" r="2.052" stroke-width="1.944"/>
      <circle fill="white" cx="28.8" cy="3.6" stroke="white" id="connector16pad" r="2.052" stroke-width="1.944"/>
      <circle fill="white" cx="21.6" cy="3.6" stroke="white" id="connector17pad" r="2.052" stroke-width="1.944"/>
      <circle fill="white" cx="14.4" cy="3.6" stroke="white" id="connector18pad" r="2.052" stroke-width="1.944"/>
      <circle fill="white" cx="7.2" cy="3.6" stroke="white" id="connector19pad" r="2.052" stroke-width="1.944"/>
      <circle fill="white" cx="46.8" cy="10.8" stroke="white" id="connector25pad" r="2.052" stroke-width="1.944"/>
      <circle fill="white" cx="46.8" cy="18" stroke="white" id="connector26pad" r="2.052" stroke-width="1.944"/>
      <circle fill="white" cx="46.8" cy="25.2" stroke="white" id="connector27pad" r="2.052" stroke-width="1.944"/>
      <circle fill="white" cx="46.8" cy="32.4" stroke="white" id="connector28pad" r="2.052" stroke-width="1.944"/>
      <circle fill="white" cx="46.8" cy="39.6" stroke="white" id="connector29pad" r="2.052" stroke-width="1.944"/>
      <circle fill="white" cx="38.519" cy="35.64" stroke="white" id="connector21pad" r="2.052" stroke-width="1.944"/>
      <circle fill="white" cx="38.519" cy="42.84" stroke="white" id="connector20pad" r="2.052" stroke-width="1.944"/>
      <circle fill="white" cx="46.8" cy="46.8" stroke="white" id="connector30pad" r="2.052" stroke-width="1.944"/>
      <circle fill="white" cx="46.8" cy="54" stroke="white" id="connector31pad" r="2.052" stroke-width="1.944"/>
      <circle fill="white" cx="46.8" cy="61.2" stroke="white" id="connector32pad" r="2.052" stroke-width="1.944"/>
      <circle fill="white" cx="46.8" cy="68.4" stroke="white" id="connector33pad" r="2.052" stroke-width="1.944"/>
      <circle fill="white" cx="46.8" cy="75.6" stroke="white" id="connector34pad" r="2.052" stroke-width="1.944"/>
      <circle fill="white" cx="46.8" cy="82.8" stroke="white" id="connector35pad" r="2.052" stroke-width="1.944"/>
      <circle fill="white" cx="46.8" cy="90" stroke="white" id="connector36pad" r="2.052" stroke-width="1.944"/>
      <circle fill="white" cx="3.6" cy="90" stroke="white" id="connector37pad" r="2.052" stroke-width="1.944"/>
      <circle fill="white" cx="3.6" cy="82.8" stroke="white" id="connector38pad" r="2.052" stroke-width="1.944"/>
      <circle fill="white" cx="3.6" cy="75.6" stroke="white" id="connector39pad" r="2.052" stroke-width="1.944"/>
      <circle fill="white" cx="3.6" cy="68.4" stroke="white" id="connector40pad" r="2.052" stroke-width="1.944"/>
      <circle fill="white" cx="3.6" cy="61.2" stroke="white" id="connector41pad" r="2.052" stroke-width="1.944"/>
      <circle fill="white" cx="3.6" cy="54" stroke="white" id="connector42pad" r="2.052" stroke-width="1.944"/>
      <circle fill="white" cx="3.6" cy="46.8" stroke="white" id="connector43pad" r="2.052" stroke-width="1.944"/>
      <circle fill="white" cx="3.6" cy="39.6" stroke="white" id="connector44pad" r="2.052" stroke-width="1.944"/>
      <circle fill="white" cx="3.6" cy="32.4" stroke="white" id="connector45pad" r="2.052" stroke-width="1.944"/>
      <circle fill="white" cx="3.6" cy="25.2" stroke="white" id="connector46pad" r="2.052" stroke-width="1.944"/>
      <circle fill="white" cx="3.6" cy="18" stroke="white" id="connector47pad" r="2.052" stroke-width="1.944"/>
      <circle fill="white" cx="3.6" cy="10.8" stroke="white" id="connector48pad" r="2.052" stroke-width="1.944"/>
     </g>
    </g>
   </g>
  </g>
  <g partID="1491271">
   <g transform="translate(80.8098,94.5339)">
    <g transform="matrix(0,-1,1,0,0,0)">
     <g id="copper1">
      <!-- <rect width="55" x="10" y="15.5" fill="none" height="55" stroke="rgb(255, 191, 0)" stroke-width="20" />  -->
      <circle fill="white" cx="2.7" cy="3.096" stroke="white" r="1.98" id="connector0pin" stroke-width="2.16"/>
      <circle fill="white" cx="31.5" cy="3.096" stroke="white" r="1.98" id="connector1pin" stroke-width="2.16"/>
     </g>
    </g>
   </g>
  </g>
 </g>
</svg>
